<svg xmlns="http://www.w3.org/2000/svg" viewBox="0 0 1200 720" role="img" aria-label="Traktor ML clustering explorer interface">
  <rect width="1200" height="720" rx="22" fill="#0b1017"/>
  <rect x="0" y="0" width="1200" height="42" fill="#171d26"/>
  <circle cx="24" cy="21" r="6" fill="#7a8494"/>
  <circle cx="48" cy="21" r="6" fill="#7a8494"/>
  <circle cx="72" cy="21" r="6" fill="#7a8494"/>
  <rect x="0" y="42" width="215" height="678" fill="#111721"/>
  <text x="28" y="92" fill="#f8fafc" font-family="Inter, Arial, sans-serif" font-size="18" font-weight="700">Dataset</text>
  <rect x="28" y="116" width="150" height="26" rx="5" fill="#0b1017" stroke="#2b3442"/>
  <text x="42" y="135" fill="#cbd5e1" font-family="Inter, Arial, sans-serif" font-size="11">Techno set v4</text>
  <text x="28" y="216" fill="#f8fafc" font-family="Inter, Arial, sans-serif" font-size="18" font-weight="700">Filters</text>
  <rect x="28" y="244" width="158" height="34" rx="6" fill="#0b1017" stroke="#2b3442"/>
  <text x="43" y="267" fill="#cbd5e1" font-family="Inter, Arial, sans-serif" font-size="12">Minor or darker</text>
  <rect x="28" y="345" width="158" height="74" rx="8" fill="#6e7428"/>
  <text x="44" y="374" fill="#fff" font-family="Inter, Arial, sans-serif" font-size="13" font-weight="700">Re-clustering</text>
  <text x="44" y="395" fill="#fff" font-family="Inter, Arial, sans-serif" font-size="11">HDBSCAN local</text>
  <g stroke="#ef4444" stroke-width="4" stroke-linecap="round">
    <line x1="34" y1="455" x2="180" y2="455" stroke="#384152"/>
    <line x1="34" y1="455" x2="74" y2="455"/>
    <circle cx="74" cy="455" r="7" fill="#ef4444"/>
    <line x1="34" y1="500" x2="180" y2="500" stroke="#384152"/>
    <line x1="34" y1="500" x2="101" y2="500"/>
    <circle cx="101" cy="500" r="7" fill="#ef4444"/>
    <line x1="34" y1="545" x2="180" y2="545" stroke="#384152"/>
    <line x1="34" y1="545" x2="56" y2="545"/>
    <circle cx="56" cy="545" r="7" fill="#ef4444"/>
  </g>
  <text x="260" y="112" fill="#f8fafc" font-family="Inter, Arial, sans-serif" font-size="33" font-weight="800">TRAKTOR ML V4 — Clustering Explorer</text>
  <text x="260" y="158" fill="#94a3b8" font-family="Inter, Arial, sans-serif" font-size="16">Embedding space · MERT · HDBSCAN · playlist export</text>
  <text x="260" y="222" fill="#f8fafc" font-family="Inter, Arial, sans-serif" font-size="19" font-weight="700">Map embeddings (UMAP)</text>
  <rect x="260" y="250" width="820" height="330" rx="14" fill="#0d131b" stroke="#1f2937"/>
  <g stroke="#1f2937" stroke-width="1">
    <line x1="300" y1="540" x2="1030" y2="540"/><line x1="300" y1="480" x2="1030" y2="480"/><line x1="300" y1="420" x2="1030" y2="420"/><line x1="300" y1="360" x2="1030" y2="360"/><line x1="300" y1="300" x2="1030" y2="300"/>
    <line x1="370" y1="275" x2="370" y2="560"/><line x1="500" y1="275" x2="500" y2="560"/><line x1="630" y1="275" x2="630" y2="560"/><line x1="760" y1="275" x2="760" y2="560"/><line x1="890" y1="275" x2="890" y2="560"/><line x1="1020" y1="275" x2="1020" y2="560"/>
  </g>
  <g opacity="0.95">
    <circle cx="410" cy="430" r="4" fill="#38bdf8"/><circle cx="448" cy="388" r="4" fill="#0ea5e9"/><circle cx="480" cy="470" r="4" fill="#22d3ee"/><circle cx="522" cy="410" r="4" fill="#38bdf8"/><circle cx="552" cy="502" r="4" fill="#0ea5e9"/>
    <circle cx="602" cy="360" r="4" fill="#38bdf8"/><circle cx="634" cy="452" r="4" fill="#22d3ee"/><circle cx="672" cy="398" r="4" fill="#38bdf8"/><circle cx="714" cy="485" r="4" fill="#0ea5e9"/><circle cx="756" cy="435" r="4" fill="#38bdf8"/>
    <circle cx="808" cy="378" r="4" fill="#f59e0b"/><circle cx="842" cy="420" r="4" fill="#38bdf8"/><circle cx="884" cy="360" r="4" fill="#0ea5e9"/><circle cx="912" cy="505" r="4" fill="#ef4444"/><circle cx="954" cy="448" r="4" fill="#38bdf8"/>
    <circle cx="990" cy="390" r="4" fill="#f59e0b"/><circle cx="1014" cy="470" r="4" fill="#38bdf8"/><circle cx="935" cy="340" r="4" fill="#22d3ee"/><circle cx="525" cy="340" r="4" fill="#f97316"/><circle cx="615" cy="516" r="4" fill="#38bdf8"/>
    <circle cx="705" cy="320" r="4" fill="#0ea5e9"/><circle cx="455" cy="520" r="4" fill="#22d3ee"/><circle cx="815" cy="548" r="4" fill="#ef4444"/><circle cx="870" cy="472" r="4" fill="#22d3ee"/>
  </g>
  <g font-family="Inter, Arial, sans-serif">
    <text x="260" y="635" fill="#94a3b8" font-size="14">Tracks</text><text x="260" y="672" fill="#fff" font-size="30" font-weight="800">239</text>
    <text x="420" y="635" fill="#94a3b8" font-size="14">L1 clusters</text><text x="420" y="672" fill="#fff" font-size="30" font-weight="800">7</text>
    <text x="610" y="635" fill="#94a3b8" font-size="14">Noise rate</text><text x="610" y="672" fill="#fff" font-size="30" font-weight="800">67.4%</text>
    <text x="815" y="635" fill="#94a3b8" font-size="14">BPM median</text><text x="815" y="672" fill="#fff" font-size="30" font-weight="800">123.9</text>
  </g>
</svg>
